<svg width="147" height="130" viewBox="0 0 147 130" fill="none" xmlns="http://www.w3.org/2000/svg">
<path fill-rule="evenodd" clip-rule="evenodd" d="M146.034 79.5C146.034 51.6096 123.424 29 95.5337 29C88.949 29 82.6586 30.2603 76.8906 32.5527C79.7024 31.8413 82.6471 31.4633 85.68 31.4633C105.407 31.4633 121.4 47.4554 121.4 67.1828C121.4 86.9101 105.407 102.902 85.68 102.902C65.9527 102.902 49.9605 86.9101 49.9605 67.1828C49.9605 61.3814 51.3435 55.9031 53.7978 51.0595C48.2675 59.1595 45.0337 68.9521 45.0337 79.5C45.0337 107.39 67.6433 130 95.5337 130C123.424 130 146.034 107.39 146.034 79.5Z" fill="white"/>
<path d="M37.0325 59C37.0325 100 32.0311 126 23.5325 126C15.0338 126 36.5338 112 18.5327 89C16.5761 86.5 13.0337 83.5 10.5327 76C10.5327 84 7.0297 87.2728 6.03269 88.5C-6.96622 104.5 2.03358 130 23.5325 130C41.0324 130 41.0338 91 41.0338 85V42L146.532 0H37.0325L37.0325 59Z" fill="white"/>
</svg>
